<svg xmlns="http://www.w3.org/2000/svg" xmlns:xlink="http://www.w3.org/1999/xlink" width="900" zoomAndPan="magnify" viewBox="0 0 675 675.000002" height="900" preserveAspectRatio="xMidYMid meet" version="1.0"><defs><clipPath id="18b82a57d0"><path d="M 0.5 0 L 674.5 0 L 674.5 674 L 0.5 674 Z M 0.5 0 " clip-rule="nonzero"/></clipPath></defs><g clip-path="url(#18b82a57d0)"><path fill="#b4585d" d="M 674.5 337 C 674.5 150.882812 523.617188 0 337.5 0 C 151.382812 0 0.5 150.882812 0.5 337 C 0.5 523.121094 151.382812 674 337.5 674 C 523.617188 674 674.5 523.121094 674.5 337 Z M 281.988281 534.820312 L 104.726562 357.558594 C 89.5625 342.394531 81.984375 322.523438 81.984375 302.640625 C 81.984375 282.757812 89.5625 262.886719 104.726562 247.722656 C 135.058594 217.390625 184.21875 217.390625 214.546875 247.722656 L 336.894531 370.066406 L 460.425781 246.535156 C 490.753906 216.207031 539.917969 216.207031 570.246094 246.535156 C 600.578125 276.867188 600.578125 326.027344 570.246094 356.359375 L 391.796875 534.808594 C 361.46875 565.136719 312.304688 565.136719 281.976562 534.808594 Z M 281.988281 534.820312 " fill-opacity="1" fill-rule="nonzero"/></g></svg>